HIERARCHY
ROOT Hips
{
	OFFSET 0.00000 0.00000 0.00000
	CHANNELS 6 Xposition Yposition Zposition Yrotation Zrotation Xrotation 
	JOINT Lumbar
	{
		OFFSET 0 0 0
		CHANNELS 3 Zrotation Xrotation Yrotation
		JOINT Neck
		{
			OFFSET 0.00 0.2701 0.00
			CHANNELS 3 Zrotation Xrotation Yrotation
			End Site
			{
				OFFSET 0.00 0.1379 0.00
			}
		}
		JOINT RightShoulder
		{
			OFFSET 0.0119 0.2289 0.1181
			CHANNELS 3 Zrotation Xrotation Yrotation
			JOINT RightElbow
			{
				OFFSET 0.00 -0.1475 0.00
				CHANNELS 2 Zrotation Yrotation
				JOINT RightWrist
				{
					OFFSET 0.00 -0.1605 0.00
					CHANNELS 2 Zrotation Xrotation
					End Site
					{
						OFFSET 0.0040 -0.1068 0.0006
					}
				}
			}
		}
		JOINT LeftShoulder
		{
			OFFSET 0.0119 0.2289 -0.1181
			CHANNELS 3 Zrotation Xrotation Yrotation
			JOINT LeftElbow
			{
				OFFSET 0.00 -0.1475 0.00
				CHANNELS 2 Zrotation Yrotation
				JOINT LeftWrist
				{
					OFFSET 0.00 -0.1605 0.00
					CHANNELS 2 Zrotation Xrotation
					End Site
					{
						OFFSET 0.0040 -0.1068 -0.0006
					}
				}
			}
		}
	}
	JOINT RightHip
	{
		OFFSET 0.0316 -0.0424 0.0458
		CHANNELS 3 Zrotation Xrotation Yrotation
		JOINT RightKnee
		{
			OFFSET 0.00 -0.2438 0.00
			CHANNELS 1 Zrotation
			JOINT RightAnkle
			{
				OFFSET 0.00 -0.2449 0.00
				CHANNELS 3 Zrotation Xrotation Yrotation
				End Site
				{
					OFFSET 0.1237 -0.0542 0.0051
				}
			}
		}
	}
	JOINT LeftHip
	{
		OFFSET 0.0316 -0.0424 -0.0458
		CHANNELS 3 Zrotation Xrotation Yrotation
		JOINT LeftKnee
		{
			OFFSET 0.00 -0.2438 0.00
			CHANNELS 1 Zrotation
			JOINT LeftAnkle
			{
				OFFSET 0.00 -0.2449 0.00
				CHANNELS 3 Zrotation Xrotation Yrotation
				End Site
				{
					OFFSET 0.1237 -0.0542 -0.0051
				}
			}
		}
	}
}
MOTION
Frames: 25
Frame Time: 0.02
0.00033 -0.00063 -0.00016 -179.21988 -42.26555 -1.29633 47.15212 1.99757 -4.68395 3.31886 -4.0607 -0.12479 -34.30267 -12.43103 -11.41301 36.17853 86.30196 0.84851 1.20567 -37.93623 20.93141 -17.88322 46.04149 -70.3238 -1.88488 5.83303 43.87724 -2.29248 -4.90561 -19.24357 -6.50332 -4.14616 -2.81912 49.97494 4.83271 0.06898 -24.88166 -6.52857 2.86386 2.14937
0.00047 -0.00058 -9e-05 -179.23375 -42.22392 -1.29763 47.18859 1.97298 -4.62534 3.94635 -4.03895 -0.12593 -31.08982 -13.04114 -10.03057 36.45718 86.70939 1.17394 1.17693 -33.82135 20.55234 -16.79673 45.99511 -72.97197 -0.93591 5.09818 43.85268 -2.2927 -4.93446 -19.22831 -6.50228 -4.15246 -2.82272 49.95571 4.8457 0.15414 -24.87724 -6.51925 2.85573 2.1405
0.00061 -0.00053 -1e-05 -179.2476 -42.18242 -1.29891 47.22503 1.94845 -4.56683 4.57255 -4.01724 -0.12706 -27.88382 -13.6495 -8.65062 36.73531 87.11568 1.49859 1.14823 -29.71519 20.17399 -15.7146 45.94866 -75.61135 0.00985 4.36566 43.82821 -2.29294 -4.96328 -19.21307 -6.50124 -4.15874 -2.82631 49.93655 4.85865 0.23908 -24.87283 -6.50996 2.84763 2.13166
0.00076 -0.00048 6e-05 -179.26143 -42.14092 -1.3002 47.2614 1.92393 -4.50839 5.19822 -3.99554 -0.1282 -24.68031 -14.25777 -7.27212 37.01313 87.52188 1.82306 1.11958 -25.61226 19.79604 -14.63164 45.90236 -78.25127 0.95586 3.63309 43.80372 -2.29316 -4.99205 -19.19786 -6.50021 -4.16502 -2.82991 49.91738 4.8716 0.32398 -24.86842 -6.50067 2.83952 2.12282
0.0009 -0.00043 0.00013 -179.27525 -42.09928 -1.3015 47.29776 1.89937 -4.44989 5.82488 -3.9738 -0.12933 -21.47127 -14.86769 -5.89188 37.29141 87.92914 2.1482 1.09091 -21.50233 19.41748 -13.54388 45.85632 -80.90019 1.90517 2.89816 43.77914 -2.29338 -5.02083 -19.18263 -6.49917 -4.17131 -2.83351 49.89813 4.88459 0.4091 -24.86402 -6.49135 2.83138 2.11395
0.00104 -0.00039 0.00021 -179.28916 -42.0581 -1.30274 47.33438 1.87489 -4.39137 6.45007 -3.95215 -0.13047 -18.27197 -15.47269 -4.51268 37.56926 88.33337 2.47178 1.06215 -17.40454 19.03957 -12.47361 45.80907 -83.51934 2.84338 2.17076 43.75488 -2.29365 -5.04973 -19.16737 -6.49815 -4.17757 -2.83708 49.87916 4.89747 0.49365 -24.85958 -6.48209 2.82334 2.10517
0.00119 -0.00034 0.00028 -179.30289 -42.01603 -1.3041 47.37042 1.85028 -4.33294 7.07761 -3.93037 -0.13161 -15.05624 -16.08704 -3.13275 37.84748 88.74328 2.79819 1.0336 -13.28634 18.66092 -11.36958 45.76402 -86.19543 3.8029 1.42905 43.73001 -2.2938 -5.07835 -19.1522 -6.49709 -4.18388 -2.84072 49.85965 4.91054 0.57925 -24.85523 -6.47274 2.81512 2.09621
0.00133 -0.00029 0.00035 -179.31678 -41.97479 -1.30535 47.40701 1.82578 -4.27445 7.70285 -3.90867 -0.13274 -11.85633 -16.69257 -1.75377 38.12571 89.14788 3.12189 1.00486 -9.18785 18.28268 -10.29621 45.71747 -88.81918 4.74275 0.70046 43.70571 -2.29407 -5.10726 -19.13695 -6.49607 -4.19015 -2.8443 49.84064 4.92345 0.66389 -24.8508 -6.46347 2.80706 2.08742
0.00147 -0.00024 0.00043 -179.3309 -41.93453 -1.30646 47.44425 1.80143 -4.21575 8.32618 -3.88719 -0.13388 -8.67118 -17.28837 -0.37393 38.4027 89.54651 3.44286 0.97588 -5.10749 17.90579 -9.26193 45.66694 -91.37927 5.65899 -0.01207 43.68206 -2.29447 -5.13642 -19.12158 -6.49507 -4.19636 -2.8478 49.8222 4.9361 0.74735 -24.84626 -6.4543 2.79921 2.07885
0.00163 -0.00019 0.00051 -179.34379 -41.88851 -1.30835 47.47772 1.77627 -4.15783 8.96323 -3.86482 -0.13501 -5.3872 -17.94332 1.00708 38.68307 89.98108 3.7813 0.94824 -0.90471 17.52364 -8.00754 45.63285 -94.30664 6.71239 -0.81698 43.65454 -2.29408 -5.16381 -19.10682 -6.4939 -4.20289 -2.85174 49.80039 4.95008 0.83757 -24.8423 -6.44453 2.7902 2.06905
0.00174 -0.00014 0.00057 -179.35922 -41.85474 -1.30864 47.51914 1.7528 -4.09858 9.56947 -3.84408 -0.13614 -2.3212 -18.47142 2.38142 38.95865 90.33873 4.08173 0.91779 3.02749 17.15108 -7.21448 45.56822 -96.45833 7.47555 -1.42692 43.63523 -2.29536 -5.19512 -19.09082 -6.49309 -4.20873 -2.85474 49.78574 4.96135 0.91353 -24.83712 -6.43605 2.78359 2.06182
0.00173 -8e-05 0.00057 -179.38214 -41.85395 -1.30404 47.58255 1.73419 -4.033 10.10552 -3.82971 -0.13725 0.21842 -18.66536 3.77298 39.20196 90.49249 4.28644 0.87962 6.31078 16.81784 -7.72544 45.38483 -96.46777 7.44182 -1.49737 43.6383 -2.30127 -5.2359 -19.07108 -6.49329 -4.21287 -2.85516 49.79053 4.9644 0.94965 -24.82843 -6.43096 2.7841 2.06204
0.00167 -2e-05 0.00056 -179.40756 -41.86551 -1.29794 47.65386 1.71724 -3.96657 10.60771 -3.81655 -0.13835 2.52449 -18.7296 5.15131 39.44391 90.56777 4.45147 0.83866 9.30327 16.49222 -8.6928 45.17724 -95.70118 7.11703 -1.37287 43.64958 -2.30883 -5.28084 -19.05018 -6.49383 -4.21624 -2.85462 49.80249 4.96484 0.97129 -24.81853 -6.4272 2.78697 2.06479
0.00163 3e-05 0.00055 -179.43145 -41.87187 -1.29282 47.72152 1.69934 -3.90232 11.11637 -3.80167 -0.13945 4.89242 -18.84379 6.51254 39.69915 90.67418 4.62893 0.79895 12.37013 16.1541 -9.42615 45.00356 -95.29825 6.92528 -1.34052 43.65725 -2.31564 -5.32471 -19.03002 -6.49423 -4.21984 -2.85453 49.81141 4.9671 1.00044 -24.80926 -6.42293 2.7884 2.06611
0.00159 0.0001 0.00055 -179.45683 -41.87672 -1.28633 47.7897 1.68223 -3.83061 11.66373 -3.792 -0.14056 7.45265 -18.9947 7.97133 39.90137 90.79926 4.82964 0.75923 15.68791 15.85244 -10.27184 44.73312 -94.84603 6.72839 -1.2928 43.66462 -2.32251 -5.36514 -19.00887 -6.49464 -4.22405 -2.85445 49.81971 4.96693 1.02691 -24.7996 -6.41825 2.79127 2.06856
0.00154 0.00015 0.00054 -179.47992 -41.8874 -1.28244 47.85838 1.66394 -3.77411 12.12106 -3.77142 -0.14165 9.54967 -19.03962 9.22377 40.21308 90.86723 4.97292 0.71899 18.40464 15.47878 -10.99284 44.65846 -94.3142 6.47491 -1.23084 43.67433 -2.32958 -5.41369 -18.98961 -6.49503 -4.2267 -2.85405 49.83067 4.9709 1.05394 -24.79051 -6.41475 2.79183 2.06935
0.00144 0.00019 0.0005 -179.49415 -41.91302 -1.2854 47.92886 1.6414 -3.76112 12.34963 -3.72335 -0.14256 10.48665 -18.81377 9.90919 40.83179 90.79407 4.96419 0.67697 19.61267 14.88657 -11.24623 45.1291 -93.74163 6.12323 -1.17848 43.69052 -2.33737 -5.48373 -18.97495 -6.49587 -4.22635 -2.85357 49.84992 4.98953 1.10016 -24.78306 -6.41402 2.7842 2.06396
0.00132 0.00022 0.00046 -179.50636 -41.94368 -1.29114 47.99907 1.61773 -3.76329 12.48645 -3.66369 -0.14351 10.95326 -18.48779 10.38716 41.55915 90.66683 4.89971 0.63476 20.20991 14.22529 -11.36029 45.79664 -93.11849 5.72743 -1.11841 43.70837 -2.34519 -5.56166 -18.96241 -6.49657 -4.22429 -2.8527 49.87104 5.012 1.14516 -24.7763 -6.41445 2.77438 2.05697
0.00121 0.00025 0.00042 -179.52074 -41.97083 -1.29607 48.06793 1.59497 -3.75762 12.65787 -3.60748 -0.14442 11.59569 -18.21397 10.96088 42.2349 90.56588 4.86275 0.59325 21.03594 13.60692 -11.54576 46.37641 -92.52518 5.36026 -1.06106 43.72419 -2.35262 -5.63606 -18.94944 -6.49693 -4.22226 -2.85161 49.8896 5.03094 1.18106 -24.7694 -6.41444 2.76633 2.05136
0.0011 0.00029 0.00038 -179.52986 -42.00369 -1.29908 48.14351 1.57059 -3.75574 12.85869 -3.55913 -0.1452 12.39335 -17.90684 11.52935 42.92319 90.45424 4.81493 0.54889 22.06239 12.93883 -11.71351 46.95307 -91.87381 4.94577 -0.99997 43.74583 -2.36174 -5.71085 -18.93408 -6.49897 -4.22325 -2.85209 49.91582 5.05706 1.25583 -24.76169 -6.41414 2.75507 2.04311
0.00098 0.00031 0.00033 -179.54948 -42.02552 -1.30672 48.20463 1.54932 -3.74981 12.97614 -3.49146 -0.14653 12.75501 -17.64783 12.05786 43.60719 90.35395 4.7773 0.51068 22.52436 12.35947 -11.87851 47.57703 -91.34406 4.62433 -0.9477 43.75544 -2.36727 -5.78605 -18.92432 -6.49752 -4.21771 -2.84932 49.92621 5.06949 1.25125 -24.7559 -6.41467 2.74998 2.03992
0.0008 0.00029 0.00024 -179.59815 -42.01712 -1.32689 48.22846 1.53678 -3.72738 12.89245 -3.37473 -0.14708 12.0623 -17.53992 12.54137 44.28727 90.29089 4.77902 0.48766 21.62591 12.02833 -12.07301 48.33651 -91.14553 4.56293 -0.91996 43.73311 -2.36335 -5.86586 -18.92876 -6.4859 -4.19305 -2.83692 49.89444 5.04066 1.01338 -24.75466 -6.41742 2.76214 2.05134
0.0006 0.00026 0.00013 -179.65757 -41.99715 -1.35153 48.23726 1.52743 -3.70089 12.72677 -3.23874 -0.14859 10.94155 -17.48583 12.98864 44.95306 90.24279 4.79341 0.4712 20.17204 11.79176 -12.26668 49.12642 -91.0792 4.60011 -0.90271 43.69829 -2.35576 -5.94492 -18.9389 -6.47087 -4.16213 -2.8214 49.84627 4.99842 0.69853 -24.75545 -6.42091 2.78062 2.06782
0.00041 0.00023 2e-05 -179.71228 -41.98142 -1.37385 48.25118 1.51667 -3.677 12.59475 -3.11052 -0.15121 9.99567 -17.41172 13.44367 45.60245 90.19324 4.80399 0.45298 18.94284 11.52033 -12.45646 49.86846 -90.96612 4.59808 -0.88273 43.66801 -2.34948 -6.02059 -18.94692 -6.45777 -4.1351 -2.80782 49.80421 4.96402 0.42839 -24.75571 -6.42391 2.79647 2.08183
0.00022 0.0002 -8e-05 -179.76596 -41.97004 -1.39753 48.27217 1.50565 -3.64945 12.47557 -2.98576 -0.14742 9.11722 -17.31482 13.93039 46.35133 90.11965 4.80499 0.42963 17.8124 11.21068 -12.65972 50.76348 -90.79042 4.56869 -0.85362 43.64247 -2.34455 -6.11173 -18.95301 -6.44309 -4.10369 -2.7921 49.76779 4.92239 0.11685 -24.75435 -6.4276 2.81135 2.0966
